<?xml version="1.0" encoding="utf-8"?>
<!-- Generator: Adobe Illustrator 16.0.0, SVG Export Plug-In . SVG Version: 6.00 Build 0)  -->
<!DOCTYPE svg PUBLIC "-//W3C//DTD SVG 1.1//EN" "http://www.w3.org/Graphics/SVG/1.1/DTD/svg11.dtd">
<svg version="1.1" id="Layer_1" xmlns="http://www.w3.org/2000/svg" xmlns:xlink="http://www.w3.org/1999/xlink" x="0px" y="0px"
	 width="68.125px" height="24.125px" viewBox="0 0 68.125 24.125" enable-background="new 0 0 68.125 24.125" xml:space="preserve">
<g>
	<path fill="#FFFFFF" d="M9.367,23.262L2.942,9.433h3.054l4.582,10.458h0.058l4.581-10.458h3.054l-6.425,13.829H9.367z"/>
	<path fill="#FFFFFF" d="M18.368,11.259L2.353,6.532V4.3l16.015,4.728V11.259z"/>
	<polygon fill="#FFFFFF" points="6.175,7.34 9.043,7.34 10.573,3.848 10.63,3.848 12.16,7.34 15.029,7.34 11.84,0.477 9.363,0.477 	
		"/>
</g>
<g>
	<g>
		<path fill="#FFFFFF" d="M23.276,4.555h4.356c-0.024,0.208-0.044,0.394-0.06,0.558c-0.016,0.164-0.06,0.338-0.132,0.522h-3.12
			l-0.444,2.532h2.616c-0.016,0.376-0.08,0.736-0.192,1.08h-2.616L23,13.184c-0.208,0.023-0.416,0.035-0.624,0.035
			c-0.112,0-0.22-0.002-0.324-0.006s-0.2-0.014-0.288-0.029L23.276,4.555z"/>
		<path fill="#FFFFFF" d="M28.52,4.543c0.304-0.048,0.596-0.082,0.876-0.102c0.28-0.02,0.556-0.03,0.828-0.03
			c0.36,0,0.712,0.036,1.056,0.108c0.344,0.072,0.65,0.192,0.918,0.36c0.268,0.168,0.482,0.39,0.642,0.666
			c0.16,0.276,0.24,0.622,0.24,1.038c0,0.424-0.068,0.796-0.204,1.116s-0.306,0.598-0.51,0.834s-0.428,0.434-0.672,0.594
			c-0.244,0.16-0.47,0.288-0.678,0.384l1.572,3.672c-0.24,0.023-0.472,0.035-0.696,0.035c-0.232,0-0.448-0.012-0.648-0.035
			l-1.668-4.021l0.12-0.036c0.048-0.008,0.134-0.036,0.258-0.084c0.124-0.048,0.264-0.116,0.42-0.204
			c0.156-0.088,0.318-0.194,0.486-0.318c0.168-0.124,0.322-0.272,0.462-0.444c0.14-0.172,0.254-0.364,0.342-0.576
			c0.088-0.212,0.132-0.45,0.132-0.714c0-0.48-0.136-0.824-0.408-1.032c-0.272-0.208-0.648-0.312-1.128-0.312
			c-0.128,0-0.242,0.004-0.342,0.012c-0.1,0.008-0.214,0.02-0.342,0.036l-1.356,7.692c-0.096,0.008-0.198,0.016-0.306,0.023
			s-0.214,0.012-0.318,0.012c-0.096,0-0.198-0.002-0.306-0.006s-0.206-0.014-0.294-0.029L28.52,4.543z"/>
		<path fill="#FFFFFF" d="M36.26,13.327c-0.48,0-0.898-0.076-1.254-0.228s-0.652-0.366-0.888-0.642s-0.412-0.61-0.528-1.002
			c-0.116-0.392-0.174-0.824-0.174-1.296c0-0.736,0.096-1.45,0.288-2.142c0.192-0.692,0.474-1.304,0.846-1.836
			s0.83-0.96,1.375-1.284c0.543-0.324,1.164-0.486,1.859-0.486c0.48,0,0.9,0.08,1.26,0.24c0.36,0.16,0.656,0.38,0.889,0.66
			c0.231,0.28,0.406,0.616,0.521,1.008c0.116,0.392,0.174,0.82,0.174,1.284c0,0.752-0.098,1.472-0.293,2.16
			c-0.197,0.688-0.48,1.296-0.853,1.824c-0.372,0.528-0.828,0.95-1.368,1.266C37.573,13.17,36.955,13.327,36.26,13.327z
			 M36.391,12.271c0.473,0,0.891-0.138,1.255-0.414c0.364-0.276,0.672-0.636,0.924-1.08c0.252-0.444,0.444-0.944,0.576-1.5
			c0.132-0.556,0.198-1.11,0.198-1.662c0-0.648-0.135-1.164-0.402-1.548c-0.268-0.384-0.702-0.576-1.303-0.576
			c-0.479,0-0.903,0.136-1.271,0.408c-0.368,0.272-0.676,0.628-0.924,1.068s-0.436,0.938-0.564,1.494
			c-0.128,0.556-0.192,1.118-0.192,1.686c0,0.672,0.138,1.194,0.414,1.566C35.377,12.085,35.807,12.271,36.391,12.271z"/>
		<path fill="#FFFFFF" d="M42.379,4.555c0.088-0.016,0.186-0.026,0.295-0.03c0.107-0.004,0.205-0.006,0.293-0.006
			c0.2,0,0.381,0.012,0.541,0.036l2.424,6.504l1.127-6.504c0.08-0.008,0.158-0.016,0.234-0.024s0.154-0.012,0.234-0.012h0.287
			l0.385,0.036l-1.512,8.628c-0.088,0.016-0.183,0.025-0.282,0.029c-0.101,0.004-0.198,0.006-0.294,0.006
			c-0.088,0-0.178-0.002-0.27-0.006c-0.093-0.004-0.183-0.014-0.271-0.029l-2.437-6.468l-1.115,6.468
			c-0.16,0.023-0.316,0.035-0.469,0.035h-0.3l-0.384-0.035L42.379,4.555z"/>
		<path fill="#FFFFFF" d="M50.827,5.623h-2.136c0-0.176,0.016-0.352,0.048-0.528s0.08-0.356,0.144-0.54h5.508
			c0,0.184-0.016,0.362-0.047,0.534c-0.033,0.172-0.08,0.35-0.145,0.534h-2.136l-1.32,7.561c-0.208,0.023-0.42,0.035-0.636,0.035
			c-0.104,0-0.209-0.002-0.312-0.006s-0.199-0.014-0.287-0.029L50.827,5.623z"/>
		<path fill="#FFFFFF" d="M56.071,9.175c0,0.168-0.019,0.352-0.054,0.552c-0.036,0.2-0.082,0.384-0.139,0.552h-3.023
			c0.016-0.376,0.08-0.744,0.191-1.104H56.071z"/>
		<path fill="#FFFFFF" d="M57.775,4.555c0.104-0.016,0.208-0.028,0.312-0.036c0.104-0.008,0.207-0.012,0.312-0.012
			c0.112,0,0.218,0.004,0.317,0.012c0.101,0.008,0.199,0.02,0.295,0.036L57.5,13.184c-0.113,0.016-0.219,0.027-0.318,0.035
			s-0.206,0.012-0.318,0.012c-0.111,0-0.218-0.004-0.318-0.012c-0.1-0.008-0.193-0.02-0.281-0.035L57.775,4.555z"/>
		<path fill="#FFFFFF" d="M60.5,4.555c0.088-0.016,0.186-0.026,0.293-0.03c0.108-0.004,0.206-0.006,0.295-0.006
			c0.199,0,0.379,0.012,0.539,0.036l2.424,6.504l1.129-6.504c0.08-0.008,0.158-0.016,0.233-0.024
			c0.076-0.008,0.154-0.012,0.234-0.012h0.288l0.384,0.036l-1.513,8.628c-0.088,0.016-0.182,0.025-0.281,0.029
			s-0.198,0.006-0.294,0.006c-0.089,0-0.179-0.002-0.271-0.006s-0.182-0.014-0.27-0.029l-2.436-6.468l-1.117,6.468
			c-0.16,0.023-0.315,0.035-0.467,0.035h-0.301l-0.384-0.035L60.5,4.555z"/>
	</g>
	<g>
		<path fill="#FFFFFF" d="M23.285,15.84c0.04-0.006,0.088-0.01,0.145-0.012c0.056,0,0.106-0.002,0.149-0.002
			c0.046,0.001,0.093,0.002,0.14,0.004s0.089,0.006,0.126,0.012l0.439,3.302c-0.089,0.009-0.178,0.013-0.267,0.013
			c-0.073,0-0.148-0.005-0.225-0.014l-0.084-0.777l-1.111-0.003l-0.337,0.774c-0.073,0.01-0.156,0.014-0.248,0.014
			c-0.043,0-0.085-0.002-0.126-0.004c-0.042-0.001-0.079-0.005-0.113-0.011L23.285,15.84z M23.663,17.962l-0.183-1.593l-0.703,1.59
			L23.663,17.962z"/>
		<path fill="#FFFFFF" d="M29.6,15.855c0.116-0.018,0.228-0.029,0.335-0.037s0.213-0.011,0.317-0.011
			c0.138,0.001,0.272,0.015,0.404,0.042c0.131,0.029,0.248,0.075,0.351,0.14c0.102,0.064,0.184,0.149,0.244,0.255
			c0.061,0.105,0.091,0.238,0.091,0.397c0,0.163-0.027,0.305-0.079,0.427c-0.053,0.123-0.119,0.229-0.196,0.318
			c-0.079,0.09-0.164,0.166-0.258,0.227c-0.093,0.061-0.18,0.109-0.259,0.146l0.597,1.406c-0.092,0.01-0.181,0.014-0.267,0.014
			c-0.089-0.001-0.171-0.006-0.248-0.016l-0.633-1.539l0.046-0.014c0.019-0.004,0.051-0.014,0.099-0.031
			c0.048-0.02,0.101-0.045,0.161-0.078c0.059-0.033,0.122-0.074,0.186-0.121s0.124-0.104,0.177-0.17
			c0.054-0.066,0.098-0.139,0.131-0.22c0.034-0.081,0.051-0.172,0.051-0.272c0-0.184-0.051-0.315-0.154-0.396
			c-0.104-0.078-0.248-0.119-0.431-0.12c-0.049,0-0.093,0.001-0.131,0.005c-0.038,0.002-0.082,0.007-0.131,0.013l-0.528,2.94
			c-0.037,0.003-0.076,0.006-0.117,0.01c-0.041,0.002-0.082,0.004-0.122,0.004c-0.037,0-0.076-0.002-0.117-0.003
			s-0.079-0.007-0.112-0.013L29.6,15.855z"/>
		<path fill="#FFFFFF" d="M37.119,15.885c0.039-0.006,0.088-0.01,0.145-0.011s0.105-0.002,0.148-0.002
			c0.047,0,0.093,0.001,0.141,0.003c0.047,0.002,0.09,0.006,0.126,0.012l0.438,3.302c-0.088,0.009-0.178,0.013-0.266,0.013
			c-0.073,0-0.148-0.005-0.225-0.014l-0.085-0.777l-1.11-0.003l-0.338,0.774c-0.074,0.01-0.156,0.014-0.248,0.014
			c-0.043,0-0.085-0.002-0.126-0.004c-0.042-0.001-0.079-0.005-0.113-0.011L37.119,15.885z M37.498,18.007l-0.184-1.593l-0.703,1.59
			L37.498,18.007z"/>
		<path fill="#FFFFFF" d="M44.803,18.724c0.058,0.11,0.09,0.241,0.1,0.391c-0.062,0.027-0.128,0.05-0.198,0.068
			c-0.07,0.018-0.142,0.033-0.216,0.045c-0.073,0.013-0.146,0.021-0.218,0.027c-0.071,0.005-0.137,0.009-0.195,0.008
			c-0.4-0.001-0.709-0.114-0.924-0.343c-0.216-0.227-0.321-0.539-0.32-0.938c0.001-0.275,0.04-0.541,0.117-0.797
			c0.077-0.258,0.192-0.484,0.345-0.682s0.34-0.354,0.563-0.473c0.224-0.119,0.482-0.178,0.776-0.177
			c0.162,0.001,0.301,0.013,0.416,0.036c0.113,0.023,0.211,0.051,0.29,0.086c-0.015,0.07-0.032,0.134-0.053,0.191
			c-0.021,0.059-0.051,0.123-0.091,0.193c-0.089-0.034-0.176-0.059-0.262-0.074s-0.181-0.023-0.289-0.023
			c-0.226-0.001-0.422,0.045-0.587,0.14c-0.166,0.095-0.302,0.22-0.408,0.378c-0.106,0.157-0.185,0.336-0.235,0.538
			c-0.052,0.202-0.077,0.409-0.078,0.624c-0.001,0.297,0.071,0.521,0.217,0.676c0.145,0.152,0.354,0.23,0.629,0.231
			c0.117,0.001,0.225-0.011,0.324-0.031S44.704,18.767,44.803,18.724z"/>
		<path fill="#FFFFFF" d="M50.853,15.93c0.04-0.006,0.088-0.01,0.145-0.011c0.056-0.001,0.106-0.002,0.149-0.002
			c0.045,0,0.092,0.001,0.14,0.003s0.089,0.006,0.126,0.012l0.439,3.302c-0.09,0.009-0.178,0.013-0.267,0.013
			c-0.073,0-0.148-0.004-0.225-0.015l-0.085-0.776l-1.111-0.004l-0.337,0.775c-0.073,0.01-0.156,0.014-0.247,0.014
			c-0.044,0-0.086-0.002-0.127-0.004c-0.041-0.001-0.079-0.006-0.113-0.012L50.853,15.93z M51.23,18.051l-0.183-1.593l-0.702,1.591
			L51.23,18.051z"/>
		<path fill="#FFFFFF" d="M57.603,16.359l-0.55-0.001c0-0.067,0.005-0.136,0.016-0.206c0.012-0.07,0.029-0.138,0.055-0.202
			l1.018,0.003l-0.426,2.381c-0.033,0.184-0.076,0.339-0.129,0.463c-0.053,0.127-0.119,0.227-0.199,0.301
			c-0.079,0.074-0.174,0.128-0.285,0.16c-0.109,0.031-0.24,0.047-0.39,0.047c-0.085-0.001-0.163-0.006-0.229-0.018
			c-0.067-0.01-0.13-0.025-0.188-0.043c0.007-0.07,0.017-0.14,0.028-0.207c0.013-0.067,0.035-0.132,0.07-0.193
			c0.033,0.01,0.076,0.021,0.131,0.033c0.053,0.013,0.109,0.019,0.171,0.019c0.064,0.001,0.125-0.004,0.183-0.013
			c0.056-0.01,0.107-0.029,0.153-0.062s0.085-0.079,0.12-0.14c0.033-0.061,0.06-0.143,0.078-0.243L57.603,16.359z"/>
		<path fill="#FFFFFF" d="M63.167,15.97c0.04-0.006,0.081-0.01,0.122-0.013c0.041-0.004,0.082-0.005,0.121-0.004
			c0.04,0,0.079,0.001,0.117,0.004c0.038,0.004,0.076,0.008,0.112,0.014l-0.336,1.873c-0.038,0.211-0.057,0.39-0.058,0.536
			c0,0.188,0.038,0.321,0.116,0.402s0.214,0.122,0.405,0.122c0.133,0.001,0.244-0.021,0.338-0.064
			c0.094-0.045,0.174-0.111,0.236-0.199c0.065-0.089,0.119-0.199,0.162-0.332s0.08-0.287,0.112-0.461l0.332-1.872
			c0.043-0.006,0.083-0.011,0.122-0.013c0.037-0.004,0.078-0.005,0.121-0.005c0.037,0.001,0.076,0.002,0.117,0.005
			c0.041,0.004,0.078,0.008,0.112,0.014l-0.354,1.988c-0.041,0.219-0.095,0.414-0.161,0.586c-0.066,0.171-0.152,0.314-0.259,0.428
			c-0.105,0.115-0.236,0.201-0.391,0.261s-0.341,0.089-0.559,0.088c-0.314-0.001-0.549-0.077-0.703-0.228s-0.23-0.383-0.229-0.698
			c0-0.07,0.005-0.146,0.015-0.224c0.009-0.08,0.021-0.164,0.037-0.254L63.167,15.97z"/>
	</g>
</g>
</svg>
